<svg width="33" height="38" viewBox="0 0 33 38" fill="none" xmlns="http://www.w3.org/2000/svg">
<path d="M1.54773 37.1102C0.917044 36.8209 0.735505 36.3233 0.756479 35.6478C0.85195 32.5038 2.13792 29.9311 4.43356 27.8315C5.31378 27.0265 6.21858 26.249 7.10097 25.4469C7.37653 25.1966 7.62461 24.9145 7.86762 24.6317C8.48095 23.9172 8.76592 23.089 8.7623 22.1408C8.75145 18.7899 8.7001 15.4383 8.77387 12.0896C8.85416 8.4523 10.1857 5.28006 12.6976 2.63724C13.551 1.73895 14.5933 1.11911 15.8496 0.928168C15.8814 0.923105 15.9103 0.893448 15.94 0.875366C16.3016 0.875366 16.6633 0.875366 17.0249 0.875366C17.7865 1.05763 18.5213 1.2992 19.1817 1.74328C20.3888 2.55479 21.2929 3.64186 22.0219 4.87647C23.4598 7.31026 24.2698 9.91185 24.2185 12.7767C24.165 15.7406 24.2597 18.7075 24.1852 21.6707C24.1454 23.2315 24.7183 24.4227 25.835 25.4259C26.8476 26.3358 27.8833 27.2218 28.8662 28.162C30.9926 30.198 32.1108 32.6933 32.2084 35.6485C32.2308 36.3219 32.0522 36.8231 31.4179 37.111C21.4614 37.1102 11.5049 37.1102 1.54773 37.1102ZM10.8757 30.4113C14.6388 30.4113 18.3521 30.4113 22.0906 30.4113C22.0906 30.224 22.0906 30.0685 22.0906 29.9123C22.0906 24.2607 22.0581 18.6084 22.108 12.9568C22.1261 10.9071 21.7174 8.98968 20.8444 7.15765C20.2282 5.86517 19.4796 4.66021 18.3412 3.75035C17.5702 3.13412 16.7001 2.7479 15.7295 3.1457C15.1654 3.37714 14.594 3.72503 14.181 4.16622C12.1031 6.38665 10.9249 9.04031 10.8938 12.086C10.833 18.0623 10.8764 24.0401 10.8764 30.0172C10.8757 30.138 10.8757 30.2573 10.8757 30.4113ZM29.9995 34.9911C29.9872 34.8175 29.9858 34.6996 29.9699 34.5831C29.7522 32.9855 29.1425 31.5382 28.025 30.3882C26.8447 29.1731 25.5471 28.0723 24.2988 26.9238C24.2886 26.9144 24.2554 26.9303 24.2279 26.9353C24.2221 26.9672 24.2098 27.0012 24.2098 27.0352C24.2084 29.5897 24.2112 32.1443 24.2033 34.6989C24.2026 34.952 24.3053 34.9961 24.5259 34.9954C25.8032 34.9882 27.0804 34.9918 28.3577 34.9918C28.8857 34.9911 29.4144 34.9911 29.9995 34.9911ZM8.75869 26.8457C7.84376 27.6456 6.99392 28.3725 6.16144 29.1189C4.76409 30.3701 3.63652 31.8051 3.17725 33.6711C3.07527 34.087 3.01885 34.5137 2.93061 34.9918C3.11939 34.9918 3.23583 34.9918 3.353 34.9918C5.01579 34.9918 6.67858 34.9838 8.34136 34.999C8.66539 35.0019 8.76954 34.9231 8.76737 34.5824C8.75218 32.1363 8.75941 29.6903 8.75941 27.2449C8.75869 27.1393 8.75869 27.0344 8.75869 26.8457ZM10.8909 34.9585C14.6446 34.9585 18.3557 34.9585 22.0906 34.9585C22.0906 34.2772 22.074 33.6277 22.0979 32.9789C22.1102 32.6513 22.0183 32.5515 21.6798 32.5529C18.2125 32.5652 14.7459 32.5602 11.2785 32.5616C11.152 32.5616 11.0254 32.5754 10.8909 32.5826C10.8909 33.3955 10.8909 34.1636 10.8909 34.9585Z" fill="#C8FA00"/>
<path d="M16.4945 8.79046C18.1913 8.79986 19.5597 10.1082 19.6378 11.7942C19.6682 12.4596 19.2711 12.9521 18.6628 13.0013C18.0705 13.049 17.5859 12.6006 17.5266 11.9497C17.4687 11.3226 17.0615 10.9176 16.4894 10.9183C15.9065 10.9183 15.5051 11.3103 15.4421 11.9396C15.3763 12.6013 14.9084 13.0433 14.3153 13.0042C13.6998 12.9637 13.2955 12.4574 13.3302 11.771C13.4148 10.0902 14.8049 8.78105 16.4945 8.79046Z" fill="#C8FA00"/>
</svg>
