<svg width="37" height="38" viewBox="0 0 37 38" fill="none" xmlns="http://www.w3.org/2000/svg">
<path d="M20.8297 37.1113C20.6366 37.1113 20.4442 37.1113 20.2511 37.1113C19.8974 37.0498 19.5452 36.9797 19.19 36.929C16.1863 36.498 13.1826 36.0691 10.1782 35.6409C7.96064 35.3248 5.74238 35.0146 3.52485 34.6956C2.81677 34.5936 2.52096 34.2906 2.41247 33.5753C2.3387 33.0871 2.27867 32.5967 2.20924 32.1085C1.4932 27.0775 0.784403 22.045 0.0481186 17.0168C-0.0401198 16.4122 0.116822 15.9884 0.538486 15.5674C4.9504 11.1721 9.34786 6.76239 13.7569 2.36493C14.2805 1.84274 14.8541 1.37044 15.4045 0.875C15.5976 0.875 15.79 0.875 15.9831 0.875C16.3013 0.929968 16.6181 0.99217 16.9378 1.03846C22.1713 1.78631 27.4049 2.532 32.6384 3.27913C33.4319 3.39196 33.7212 3.68705 33.8326 4.48192C34.0481 6.02031 34.2629 7.55942 34.482 9.09781C35.0447 13.0555 35.5988 17.0154 36.1861 20.9695C36.2786 21.5929 36.0978 22.0197 35.6697 22.4457C31.2744 26.8236 26.8943 31.216 22.5012 35.5961C21.9703 36.1277 21.3881 36.6079 20.8297 37.1113ZM14.7781 28.7229C19.1445 24.3573 23.5 20.0017 27.8078 15.6947C25.685 13.5669 23.5282 11.4057 21.4206 9.29308C17.0868 13.6262 12.732 17.9817 8.38447 22.3285C10.5073 24.4513 12.6604 26.6037 14.7781 28.7229ZM19.7882 7.70335C18.406 6.30962 17.0195 4.91155 15.6576 3.53879C11.3282 7.86681 6.97772 12.2151 2.64319 16.5482C4.02535 17.9267 5.41981 19.3183 6.80052 20.6946C11.1264 16.3673 15.484 12.0089 19.7882 7.70335ZM20.5447 34.4468C24.885 30.1087 29.242 25.7546 33.578 21.4215C32.2067 20.048 30.8158 18.655 29.446 17.283C25.1013 21.6276 20.7429 25.986 16.4207 30.3083C17.797 31.689 19.1879 33.0849 20.5447 34.4468ZM7.28366 24.3891C6.55388 26.8988 5.81543 29.436 5.05166 32.0622C7.68724 31.2948 10.2107 30.56 12.7204 29.8288C10.9022 28.0097 9.10339 26.2095 7.28366 24.3891ZM23.5065 8.16407C25.3313 9.99104 27.1286 11.7905 28.9469 13.6117C29.6817 11.0861 30.4187 8.55608 31.1825 5.9299C28.5542 6.69512 26.0249 7.43068 23.5065 8.16407ZM27.5358 4.78353C27.5365 4.75677 27.5365 4.73073 27.5373 4.70397C24.6341 4.28809 21.7309 3.87293 18.7872 3.45127C18.8248 3.55036 18.827 3.57785 18.8414 3.59304C19.7506 4.50435 20.6576 5.41928 21.5783 6.31902C21.6564 6.39568 21.8408 6.42028 21.9573 6.39207C22.4122 6.28069 22.8599 6.13748 23.3105 6.00657C24.7187 5.59793 26.1269 5.19073 27.5358 4.78353ZM32.3976 9.52959C32.3448 9.60192 32.3245 9.61856 32.3188 9.63953C31.7785 11.4896 31.236 13.3398 30.7109 15.1942C30.6791 15.3063 30.7565 15.4965 30.8469 15.5884C31.6888 16.4505 32.5444 17.2989 33.3979 18.1502C33.4572 18.2095 33.5302 18.2543 33.6662 18.3607C33.2373 15.3743 32.8214 12.4798 32.3976 9.52959ZM2.70467 19.6213C2.66344 19.6481 2.6215 19.6748 2.58027 19.7009C2.99759 22.6048 3.41419 25.5087 3.83586 28.4452C3.88287 28.3916 3.90601 28.3772 3.9118 28.3576C4.45497 26.4988 5.00031 24.6408 5.52974 22.7776C5.55939 22.6735 5.48707 22.4999 5.40462 22.4117C5.03647 22.0153 4.64374 21.6414 4.26692 21.253C3.74255 20.7127 3.2247 20.1659 2.70467 19.6213ZM8.69258 33.2136C8.69475 33.2353 8.6962 33.2563 8.69837 33.278C11.6023 33.6953 14.5055 34.1119 17.4094 34.5293C17.3616 34.3672 17.2922 34.287 17.217 34.2117C16.399 33.3937 15.5745 32.5822 14.7673 31.7534C14.5901 31.5718 14.4382 31.5328 14.1988 31.6058C13.2419 31.8958 12.2785 32.1642 11.318 32.4434C10.4422 32.6987 9.56773 32.9569 8.69258 33.2136Z" fill="#C8FA00"/>
</svg>
