<svg width="38" height="38" viewBox="0 0 38 38" fill="none" xmlns="http://www.w3.org/2000/svg">
<path d="M37.1103 20.9087C37.1103 21.6081 37.1103 22.3068 37.1103 23.0062C37.0633 23.3613 37.0142 23.7157 36.97 24.0709C36.6091 26.9625 35.5756 29.5908 33.8694 31.9516C33.7349 32.1374 33.5331 32.3074 33.3248 32.4C32.8966 32.5902 32.4402 32.4542 32.1451 32.1129C31.8305 31.7491 31.824 31.2905 32.0967 30.7647C34.4863 26.164 34.2701 21.6711 31.5289 17.2859C31.4334 17.1333 31.3213 16.9901 31.2128 16.8462C31.1058 16.7044 30.9937 16.5663 30.8845 16.4267C31.4421 17.8153 31.8638 19.2163 32.0215 20.691C32.4214 24.4318 31.5448 27.8384 29.2137 30.7987C26.6353 34.0736 23.2244 36.0293 19.1423 36.8184C18.4602 36.9501 17.7652 37.0151 17.0759 37.1106C16.3765 37.1106 15.6778 37.1106 14.9784 37.1106C14.5857 37.0614 14.1922 37.0159 13.8002 36.9638C10.9383 36.5834 8.33451 35.5513 6.00054 33.8501C5.48413 33.474 5.35755 32.8679 5.66132 32.3891C5.97739 31.8901 6.57192 31.7613 7.15848 32.0651C7.43622 32.209 7.70817 32.3667 7.99386 32.4933C12.2315 34.3716 16.3483 34.1365 20.3335 31.7664C20.758 31.514 21.1472 31.203 21.5529 30.9187C21.414 30.8963 21.3142 30.931 21.2173 30.9737C19.961 31.5212 18.6555 31.8865 17.2914 32.0311C13.3981 32.4441 9.88809 31.4749 6.87424 28.9717C3.85823 26.4663 2.01028 23.2261 1.22265 19.3892C1.06642 18.6268 0.988309 17.8486 0.874756 17.0776C0.874756 16.3543 0.874756 15.6311 0.874756 14.9078C0.921768 14.5773 0.973119 14.2468 1.01435 13.9155C1.37598 11.0239 2.40735 8.39481 4.11571 6.03552C4.25023 5.84964 4.45203 5.67895 4.66033 5.58638C5.08995 5.39616 5.54488 5.53141 5.83997 5.87351C6.15459 6.23804 6.16183 6.69731 5.88916 7.2224C3.49659 11.8231 3.71502 16.3167 6.45764 20.6997C6.64714 21.002 6.87786 21.2783 7.08905 21.5669C6.99864 21.167 6.84604 20.8133 6.71729 20.4516C6.58421 20.0777 6.4562 19.7002 6.35566 19.3168C5.44796 15.8379 5.71991 12.4523 7.43188 9.28516C9.89098 4.73509 13.8559 2.20729 18.8421 1.17012C19.522 1.02836 20.2199 0.972668 20.9092 0.877197C21.6086 0.877197 22.3073 0.877197 23.0067 0.877197C23.1238 0.898172 23.241 0.929994 23.3589 0.938673C25.1642 1.07392 26.8964 1.50716 28.5657 2.20222C29.7381 2.69042 30.8346 3.3146 31.8717 4.04654C32.2753 4.33151 32.5429 4.67434 32.4655 5.19292C32.3448 6.00587 31.547 6.29807 30.729 5.87351C26.3221 3.58655 21.9673 3.69721 17.6805 6.2026C17.2437 6.45791 16.8452 6.77832 16.4293 7.06835C16.5573 7.09655 16.6456 7.06473 16.7316 7.02712C18.0892 6.43477 19.5017 6.05433 20.9794 5.92559C24.5364 5.61531 27.7911 6.45936 30.6277 8.63567C33.9236 11.1656 35.9162 14.5433 36.761 18.5994C36.9194 19.3588 36.9961 20.1377 37.1103 20.9087ZM34.3554 17.7958C34.3851 17.7821 34.414 17.7691 34.4437 17.7553C34.0263 16.8006 33.6676 15.8141 33.1801 14.8962C31.8168 12.3287 29.9102 10.2768 27.2298 9.05154C24.5226 7.81404 21.7128 7.62743 18.8725 8.50403C16.2015 9.32855 14.0526 10.8872 12.583 13.308C12.2539 13.8497 11.7317 14.0558 11.2008 13.8367C10.6916 13.6262 10.4587 13.1243 10.5983 12.516C11.2876 9.50142 12.9048 7.08499 15.3654 5.23849C16.1798 4.62733 17.0643 4.10947 17.8852 3.56991C17.8961 3.56919 17.8491 3.56268 17.8086 3.57498C14.7101 4.52029 12.0629 6.17222 10.1882 8.83745C7.66333 12.4292 7.30748 16.3298 8.98401 20.3735C9.85843 22.4826 11.284 24.1794 13.2585 25.3749C13.8371 25.725 14.0563 26.2204 13.8451 26.765C13.6382 27.2974 13.1247 27.5223 12.4658 27.3704C9.15325 26.6052 6.62978 24.7153 4.73989 21.9329C4.35149 21.3615 4.01445 20.7554 3.65426 20.1652C3.65209 20.3157 3.68826 20.4516 3.73238 20.5855C4.38693 22.5932 5.4118 24.384 6.80553 25.9767C10.0443 29.6783 15.28 31.0019 19.8489 29.2292C22.1749 28.3266 24.0626 26.8692 25.3768 24.7218C25.729 24.1461 26.2194 23.9262 26.7677 24.1396C27.3 24.3472 27.5242 24.8599 27.3716 25.5196C26.6027 28.8459 24.6977 31.3737 21.9051 33.2679C21.3063 33.6744 20.6698 34.0259 19.974 34.449C20.1165 34.4186 20.1744 34.4107 20.2286 34.394C22.3818 33.7402 24.318 32.6929 25.9786 31.169C29.3251 28.0966 30.6089 24.3016 29.715 19.8586C29.0857 16.7333 27.402 14.2562 24.6456 12.5659C24.1227 12.2448 23.9339 11.7226 24.1473 11.2018C24.3556 10.6934 24.8597 10.4583 25.4672 10.5979C28.4941 11.2922 30.9178 12.9167 32.765 15.3946C33.3385 16.162 33.8274 16.9937 34.3554 17.7958Z" fill="#C8FA00"/>
<path d="M19.0039 24.5969C15.9061 24.6019 13.392 22.098 13.3877 19.0031C13.3826 15.9032 15.8844 13.3913 18.9807 13.387C22.0806 13.3826 24.5925 15.8837 24.5969 18.98C24.6012 22.0799 22.1002 24.5925 19.0039 24.5969ZM22.4791 18.9937C22.4799 17.0843 20.9234 15.5177 19.0125 15.5054C17.0908 15.4931 15.5069 17.0669 15.5054 18.9901C15.504 20.8988 17.0626 22.4668 18.972 22.4791C20.8937 22.4914 22.4777 20.9169 22.4791 18.9937Z" fill="#C8FA00"/>
</svg>
