<svg width="105" height="51" viewBox="0 0 105 51" fill="none" xmlns="http://www.w3.org/2000/svg">
<path d="M94.5364 3.65262C95.4445 5.15653 96.3162 7.01179 95.8875 9C94.4082 8.06178 93.2183 6.52995 92.2748 5.01771C91.3247 3.49531 90.3381 1.87644 90 0C91.866 0.52885 93.5365 1.9969 94.5364 3.65262Z" fill="white"/>
<path d="M8.1303 9C7.632 7.01032 8.64997 5.15475 9.7103 3.65086C10.8775 1.9952 12.825 0.527675 15 0C14.6048 1.87712 13.4532 3.49628 12.3447 5.01855C11.2437 6.5309 9.85503 8.0626 8.1303 9Z" fill="white"/>
<path d="M7.353 12.3815C7.71698 10.8338 7.70891 9.13949 7.36239 7.6878C7.05769 6.41201 6.61431 4.60854 5.15501 4C4.09426 5.69905 3.66787 8.01277 4.28608 9.74646C4.73307 11.0005 5.53694 12.6585 7.20408 12.9151C8.73386 13.2673 10.2808 12.4524 11.5025 11.7796C12.8609 11.0316 14.1916 9.84163 15 8.42688C13.517 7.67938 11.828 8.28599 10.5574 8.86734C9.18773 9.49405 7.92951 10.8387 7.353 12.3815Z" fill="white"/>
<path d="M36 14V6H33.4286V8.91469H29.5714V6H27V14H29.5714V11.0956H33.4286V14H36Z" fill="white"/>
<path d="M45.0507 6H48L43.8152 11.3605V14H41.135V11.3707L37 6H40.0389L42.51 9.19995L45.0507 6Z" fill="white"/>
<path fill-rule="evenodd" clip-rule="evenodd" d="M57.1993 6.68274C57.7106 7.11083 58 7.83445 58 8.88409C58 9.74013 57.7974 10.3821 57.4116 10.8306C56.8906 11.4625 56.0322 11.7477 54.9132 11.758C54.5659 11.7682 51.5948 11.758 51.5948 11.758V14H49V6H54.8746C55.9163 6 56.7074 6.22419 57.1993 6.68274ZM55.2797 9.50577C55.357 9.36308 55.3955 9.17963 55.3955 8.92484C55.3955 8.65989 55.3472 8.4357 55.2605 8.31344C55.0965 8.05865 54.7877 7.93627 54.2862 7.93627H51.5756V9.89298H54.2668C54.8071 9.89298 55.1254 9.76057 55.2797 9.50577Z" fill="white"/>
<path d="M67 12.0127V14H59V6H66.933V7.99746H61.5538V9.02679H66.7778V10.9732H61.5538V12.0127H67Z" fill="white"/>
<path fill-rule="evenodd" clip-rule="evenodd" d="M77.7433 6.81528C78.1032 7.19233 78.2717 7.71207 78.2717 8.4357C78.2717 9.05738 78.1226 9.58728 77.873 9.94401C77.5943 10.3312 77.1653 10.6574 76.6369 10.7389L79 14H76.0286L74.0848 11.1771H71.6624V14H69V6H75.2312C76.4673 6 77.2756 6.3057 77.7433 6.81528ZM75.5899 9.10829C75.6602 8.98603 75.6796 8.8229 75.6796 8.69049C75.6796 8.53764 75.6602 8.37451 75.5899 8.27256C75.4506 8.00762 75.1718 7.93627 74.7525 7.93627H71.6721V9.39368H74.8022C75.2312 9.39368 75.4905 9.31217 75.5899 9.10829Z" fill="white"/>
<path d="M66 24.5191C66 22.6564 64.8384 21.6774 62.129 21.3782C61.6886 21.3239 60.394 21.1879 59.5798 21.1198C57.4844 20.8887 56.8572 20.7664 56.8572 20.2225C56.8572 19.7331 57.351 19.5019 59.2328 19.5019C60.5675 19.5019 61.315 19.7602 61.6085 20.1545C61.7554 20.3449 61.8088 20.4944 61.8221 20.644H65.666C65.6258 20.3176 65.4925 19.8553 65.2788 19.4475C64.5849 18.0877 62.9165 17 59.3263 17C55.2822 17 53.0668 18.4549 53.0668 20.3585C53.0668 22.1941 54.3212 23.2682 57.7113 23.581C58.0946 23.6144 58.9178 23.6937 59.5918 23.7585L59.6335 23.7626L59.641 23.7633L59.644 23.7636L60.007 23.7985C61.782 23.9889 62.2626 24.1112 62.2626 24.6824C62.2626 25.2126 61.7954 25.4981 59.8335 25.4981C58.312 25.4981 57.4178 25.2669 57.0974 24.8726C56.964 24.7095 56.8705 24.4647 56.8438 24.3016H53C53.04 24.5735 53.1068 25.0087 53.2535 25.3622C53.9076 26.8579 55.616 28 59.5798 28C63.8374 28 66 26.7762 66 24.5191Z" fill="white"/>
<path fill-rule="evenodd" clip-rule="evenodd" d="M39.4061 25.9809C39.8021 25.535 40 24.8598 40 24.1719C40 23.586 39.8416 23.0254 39.5117 22.656C39.1158 22.1592 38.4162 21.8025 37.6772 21.7134C38.1787 21.6497 38.6538 21.3949 38.9309 21.0637C39.2741 20.6688 39.4325 20.1338 39.4325 19.4841C39.4325 18.8344 39.2346 18.2612 38.7858 17.8281C38.2843 17.3312 37.3736 17 35.9483 17H27V27H36.199C37.664 27 38.799 26.6942 39.4061 25.9809ZM35.7635 20.0828C35.7635 20.3249 35.6842 20.5287 35.5523 20.6688C35.3675 20.8344 35.0243 20.8981 34.5756 20.8981H30.4579V19.2675H34.4833C34.9848 19.2675 35.3279 19.3312 35.5126 19.4968C35.6842 19.6369 35.7635 19.8407 35.7635 20.0828ZM36.1594 24.465C35.9483 24.656 35.5787 24.7325 34.9583 24.7325H30.4579V23.0637H34.998C35.5787 23.0637 35.9218 23.1401 36.1197 23.3057C36.2782 23.4585 36.3441 23.6497 36.3441 23.9044C36.3441 24.1465 36.2913 24.3376 36.1594 24.465Z" fill="white"/>
<path d="M53 24.5159V27H42V17H52.9069V19.4968H45.5114V20.7834H52.6941V23.2166H45.5114V24.5159H53Z" fill="white"/>
<path d="M78 19.5096V17H66V19.5096H70.2393V27H73.7477V19.5096H78Z" fill="white"/>
<path d="M78 35.9336H77.4087L77.3663 35.3491C77.1858 35.6449 76.8036 36 75.9969 36C74.6337 36 74 35.1567 74 33.0036C74 31.339 74.4034 30 76.0678 30C77.5107 30 77.9502 30.9693 77.9714 32.0124H77.2505C77.2294 31.3318 76.9331 30.7029 76.0828 30.7029C75.0594 30.7029 74.7632 31.3318 74.7632 33.026C74.7632 34.7942 75.1317 35.3491 76.0977 35.3491C76.775 35.3491 77.1709 34.9644 77.3016 34.5057V33.4033H75.845V32.73H77.9925V34.4317C77.9925 34.9401 77.9975 35.4828 77.9988 35.7556L78 35.8854V35.9336Z" fill="white"/>
<path fill-rule="evenodd" clip-rule="evenodd" d="M27.0838 35.4924H28.9229L29.3038 37H30L28.4762 31H27.629L26 37H26.6897L27.0838 35.4924ZM28.7586 34.8182H27.2611C27.2611 34.8182 27.9113 32.3939 27.9245 32.3409C27.931 32.303 28.0362 31.7651 28.0362 31.7651L28.1089 32.163L28.1412 32.3409C28.1478 32.3788 28.7586 34.8182 28.7586 34.8182Z" fill="white"/>
<path d="M35.3469 31H36L34.7279 37H33.9183C33.9183 37 33.0136 32.3334 33.0136 32.1363C33.0068 32.3334 32.0816 37 32.0816 37H31.2721L30 31H30.7346C30.7346 31 31.721 35.75 31.721 35.9394C31.721 35.75 32.6259 31 32.6259 31H33.4353C33.4353 31 34.3401 35.7576 34.3401 35.9394C34.3401 35.7576 35.3469 31 35.3469 31Z" fill="white"/>
<path fill-rule="evenodd" clip-rule="evenodd" d="M38.9227 35.4924H37.0837L36.6897 37H36L37.6289 31H38.4762L40 37H39.3038L38.9227 35.4924ZM37.2611 34.8182H38.7586C38.7586 34.8182 38.1478 32.3788 38.1412 32.3409L38.0915 32.0679L38.0361 31.7651C38.0361 31.7651 37.931 32.303 37.9245 32.3409C37.9113 32.3939 37.2611 34.8182 37.2611 34.8182Z" fill="white"/>
<path fill-rule="evenodd" clip-rule="evenodd" d="M43.291 31C44.1896 31 44.6758 31.4318 44.6758 32.6894C44.6758 33.7576 44.2854 34.1136 43.8802 34.2348L45 37H44.1896L43.151 34.3864H41.7367V37H41V31H43.291ZM43.1805 33.7045C43.7624 33.7045 43.9024 33.3939 43.9024 32.7121C43.9024 31.9394 43.6814 31.7046 43.1436 31.7046H41.744V33.7045H43.1805Z" fill="white"/>
<path fill-rule="evenodd" clip-rule="evenodd" d="M49 33.9015C49 35.3182 48.8946 35.8939 48.5933 36.3258C48.292 36.7425 47.8174 37 47.0489 37H45V31H46.9962C47.7496 31 48.3372 31.2273 48.6084 31.6364C48.9097 32.0757 49 32.6212 49 33.9015ZM46.8908 36.2879C47.3504 36.2879 47.7345 36.1667 47.9303 35.9015C48.1414 35.6137 48.2016 35.0303 48.2016 33.9015C48.2016 32.9546 48.1488 32.4469 47.9303 32.1211C47.727 31.8409 47.3353 31.7196 46.8758 31.7196H45.7608V36.2879H46.8908Z" fill="white"/>
<path d="M56.3469 31H57L55.7279 37H54.9183C54.9183 37 54.0136 32.3334 54.0136 32.1363C54.0068 32.3334 53.0816 37 53.0816 37H52.2721L51 31H51.7346C51.7346 31 52.721 35.75 52.721 35.9394C52.721 35.75 53.6258 31 53.6258 31H54.4353C54.4353 31 55.3401 35.7576 55.3401 35.9394C55.3401 35.7576 56.3469 31 56.3469 31Z" fill="white"/>
<path d="M59 31V37H58V31H59Z" fill="white"/>
<path d="M63 31V37H62.0927L59.7653 32.3484V37H59V31H59.9547L62.2268 35.5833V31H63Z" fill="white"/>
<path d="M68 31V37H67.0925L64.7654 32.3484V37H64V31H64.9548L67.2274 35.5833V31H68Z" fill="white"/>
<path d="M69 31V37H68V31H69Z" fill="white"/>
<path d="M74 31V37H73.0927L70.7657 32.3484V37H70V31H70.955L73.2275 35.5833V31H74Z" fill="white"/>
<path d="M35.3262 47.2918L34.5 45L33.6737 47.2918H31L33.163 48.7082L32.3368 51L34.5 49.5835L36.6632 51L35.8368 48.7082L38 47.2918H35.3262Z" fill="white"/>
<path d="M44.3262 47.2918L43.5 45L42.6738 47.2918H40L42.1632 48.7082L41.3369 51L43.5 49.5836L45.6632 51L44.8369 48.7082L47 47.2918H44.3262Z" fill="white"/>
<path d="M53.3263 47.2918L52.5 45L51.6737 47.2918H49L51.1631 48.7082L50.3368 51L52.5 49.5836L54.6631 51L53.8368 48.7082L56 47.2918H53.3263Z" fill="white"/>
<path d="M62.3262 47.2918L61.5 45L60.6738 47.2918H58L60.1631 48.7082L59.3368 51L61.5 49.5836L63.6631 51L62.8368 48.7082L65 47.2918H62.3262Z" fill="white"/>
<path d="M72.3255 47.2918L71.5 45L70.6733 47.2918H68L70.1628 48.7082L69.3373 51L71.5 49.5836L73.6628 51L72.836 48.7082L75 47.2918H72.3255Z" fill="white"/>
<path d="M1.9199 16.5181C2.66896 17.6359 3.82805 19.036 5.51811 18.9961C7.05497 19.0712 8.38273 18.0453 9.42833 17.1891C10.5544 16.2669 11.5709 14.9183 12 13.4604C10.4281 13.0131 8.92317 13.8417 7.8009 14.6233C6.62897 15.4397 5.72768 16.9336 5.53406 18.4676C5.51954 16.9308 5.09427 15.3436 4.40868 14.0649C3.78187 12.896 2.90841 11.3159 1.35008 11C0.7361 12.8189 0.932 15.0443 1.9199 16.5181Z" fill="white"/>
<path d="M5.98051 24.9577C4.4164 25.212 2.8907 24.2821 1.89984 23.1884C0.624147 21.7802 -0.134881 19.8912 0.0199142 18C1.62673 18.0396 2.84368 19.3873 3.74315 20.4064C4.71187 21.504 5.50559 22.948 5.88636 24.4377C5.71888 22.9531 6.23256 21.3501 7.1861 20.3595C8.1065 19.4033 9.39582 18.3612 11 18.5285C10.9654 20.0338 10.1877 21.468 9.38565 22.5421C8.63799 23.5431 7.48623 24.7812 5.98051 24.9577Z" fill="white"/>
<path d="M3.35376 31.5028C4.7497 32.4985 6.44276 33.4842 8.22205 32.7382C9.68175 32.1724 10.6098 30.5625 11.1806 29.0848C11.7853 27.5191 12.1892 25.7137 11.9096 24C10.3055 24.156 8.97544 25.4134 8.269 26.9484C7.53046 28.5531 7.3888 30.4631 7.95613 32.1456C7.11789 30.4147 5.89201 29.0143 4.59344 27.7203C3.413 26.544 1.71264 25.3048 0 25.5379C0.325859 27.8578 1.61793 30.2646 3.35376 31.5028Z" fill="white"/>
<path d="M12.5924 38.3995C14.0314 37.5325 14.6106 35.7081 14.8472 34.1448C15.1024 32.4588 15.0914 30.5994 14.3967 29C12.7272 29.47 11.5813 30.9845 11.2029 32.6433C10.8031 34.3958 11.1405 36.2636 12.1129 37.7558C10.8202 36.2611 9.10134 35.0269 7.45409 34.1614C5.86294 33.3255 3.91089 32.3172 2 32.9261C2.92144 35.1927 4.89256 37.303 7.07715 38.1759C8.76897 38.8517 10.8272 39.5201 12.5924 38.3995Z" fill="white"/>
<path d="M18.8952 38.0545C19.1084 39.6206 19.1024 41.6069 17.8365 42.8123C16.2546 44.3676 13.8064 44.0675 11.9181 43.7253C9.38307 43.2656 6.52945 41.6049 5 39.3937C6.86791 38.4058 9.1524 39.0377 11.0017 39.5493L11.1073 39.5784C13.1715 40.1488 15.3712 41.0676 17.211 42.3229C15.7428 41.0487 14.6731 39.1785 14.6207 37.2934C14.5737 35.6074 15.3356 33.8037 16.9751 33C18.1198 34.443 18.6558 36.2957 18.8952 38.0545Z" fill="white"/>
<path d="M26.6122 48.5835C27.5319 46.7782 26.6206 44.6593 25.8945 43.0933C25.036 41.2419 23.8631 39.3551 22.1844 38C20.5725 39.4324 20.7258 41.4821 21.205 43.2633C21.7749 45.3813 23.7504 47.1868 25.7961 48.2156C23.4269 47.3045 20.8394 46.7577 18.3777 46.5963L18.1283 46.5797C16.1506 46.4468 13.5759 46.2739 12 47.7664C14.3828 49.8552 17.7673 51.0603 20.7503 50.9977C22.7493 50.9558 25.492 50.7119 26.6122 48.5835Z" fill="white"/>
<path d="M97.6432 12.3835C97.0685 10.8392 95.8107 9.49267 94.4421 8.86463C93.171 8.2822 91.4831 7.67438 90 8.42071C90.8072 9.83635 92.1361 11.0276 93.4939 11.7768C94.7143 12.4504 96.2601 13.2666 97.7902 12.9158C99.4576 12.6607 100.264 11.0027 100.712 9.74839C101.332 8.01517 100.908 5.70049 99.8492 4C98.3889 4.60782 97.9432 6.4112 97.6384 7.68713C97.2902 9.13948 97.2805 10.8348 97.6432 12.3835Z" fill="white"/>
<path d="M97.1978 14.6203C98.3687 15.4373 99.2673 16.9309 99.4605 18.4643C99.4773 16.9278 99.9044 15.3416 100.591 14.0638C101.218 12.8948 102.094 11.3149 103.652 11C104.264 12.8201 104.066 15.0462 103.076 16.5196C102.328 17.6358 101.169 19.0334 99.4821 18.9959C97.9428 19.0728 96.6136 18.0441 95.5674 17.1858C94.4421 16.2624 93.4271 14.9127 93 13.454C94.5716 13.0075 96.0761 13.8376 97.1978 14.6203Z" fill="white"/>
<path d="M99.1064 24.4425C99.2775 22.9559 98.7655 21.3486 97.811 20.3555C96.8923 19.398 95.6041 18.3544 94 18.5206C94.0323 20.0268 94.8086 21.4625 95.61 22.5378C96.3564 23.5395 97.506 24.7783 99.0107 24.9568C100.575 25.214 102.103 24.2841 103.096 23.1899C104.372 21.782 105.133 19.8924 104.981 18C103.373 18.0386 102.155 19.386 101.255 20.4049C100.283 21.5038 99.488 22.9503 99.1064 24.4425Z" fill="white"/>
<path d="M96.7296 26.9501C97.4669 28.555 97.6072 30.4645 97.038 32.1457C97.8773 30.4159 99.105 29.017 100.405 27.7244C101.586 26.5496 103.288 25.3126 105 25.5468C104.673 27.8656 103.378 30.2703 101.642 31.5063C100.246 32.4991 98.5543 33.4823 96.7772 32.7397C95.3153 32.1752 94.3867 30.5627 93.8163 29.0831C93.2123 27.5176 92.8101 25.7128 93.0918 24C94.6951 24.1573 96.0248 25.4153 96.7296 26.9501Z" fill="white"/>
<path d="M92.8843 37.7516C93.8559 36.2613 94.1948 34.3958 93.7976 32.6446C93.4211 30.986 92.2758 29.4711 90.6059 29C89.91 30.5982 89.8978 32.457 90.1504 34.1428C90.3861 35.7026 90.9617 37.5228 92.3924 38.3927C94.1596 39.5218 96.223 38.854 97.9173 38.1786C100.103 37.3076 102.077 35.1993 103 32.9339C101.09 32.324 99.1366 33.3305 97.5444 34.1649C95.8975 35.0284 94.1778 36.2597 92.8843 37.7516Z" fill="white"/>
<path d="M86.1062 38.0525C85.8916 39.6179 85.8953 41.6039 87.1608 42.8102C88.7402 44.3663 91.1891 44.0679 93.0776 43.727C95.6136 43.2692 98.4684 41.6106 100 39.401C98.1336 38.4121 95.8478 39.0421 93.9986 39.5521L93.8919 39.5813C91.828 40.1499 89.6281 41.0666 87.7874 42.3199C89.2565 41.0469 90.3271 39.1786 90.381 37.2945C90.4301 35.6089 89.6698 33.8048 88.0314 33C86.8849 34.4419 86.3478 36.2941 86.1062 38.0525Z" fill="white"/>
<path d="M85.2464 50.9975C83.2477 50.954 80.5048 50.7081 79.3869 48.5789L79.3711 48.5497C78.4782 46.75 79.3857 44.6466 80.1092 43.0899C80.9694 41.2393 82.1442 39.3535 83.8236 38C85.4351 39.4335 85.2791 41.4828 84.7987 43.2634C84.2265 45.3808 82.2495 47.1849 80.2023 48.2119C82.5725 47.3028 85.1605 46.758 87.6226 46.5983L87.8731 46.5819C89.8513 46.4506 92.4259 46.28 94 47.7732C91.6153 49.8597 88.23 51.0624 85.2464 50.9975Z" fill="white"/>
</svg>
