<svg width="124" height="31" viewBox="0 0 124 31" fill="none" xmlns="http://www.w3.org/2000/svg">
<path d="M3 29H29.7995V2H3V29ZM24.6412 12.9021H18.9783V7.19684H24.6412V12.9021ZM8.1572 7.19684H13.8232V18.0979H24.6412V23.8031H8.1572V7.19684ZM47.251 2C44.6007 2 42.01 2.79177 39.8065 4.27517C37.6029 5.75857 35.8854 7.86698 34.8712 10.3338C33.857 12.8006 33.5917 15.5149 34.1087 18.1337C34.6258 20.7524 35.9019 23.1579 37.7759 25.0459C39.6499 26.934 42.0375 28.2197 44.6367 28.7406C47.2361 29.2615 49.9303 28.9942 52.3788 27.9724C54.8273 26.9506 56.92 25.2203 58.3924 23.0002C59.8648 20.7801 60.6507 18.17 60.6507 15.5C60.6465 11.9208 59.2334 8.48951 56.7214 5.95868C54.2093 3.42784 50.8035 2.00418 47.251 2ZM47.251 23.8031C45.621 23.8031 44.0275 23.3162 42.6722 22.4038C41.317 21.4915 40.2606 20.1947 39.6368 18.6775C39.013 17.1603 38.8498 15.4908 39.1678 13.8801C39.4858 12.2695 40.2708 10.79 41.4233 9.62878C42.576 8.46757 44.0444 7.67677 45.6431 7.35639C47.2418 7.03601 48.8988 7.20044 50.4048 7.82888C51.9107 8.45732 53.1979 9.52156 54.1035 10.887C55.0091 12.2524 55.4925 13.8578 55.4925 15.5C55.4891 17.7011 54.6197 19.8111 53.0749 21.3676C51.53 22.924 49.4357 23.7998 47.251 23.8031ZM108.601 2C105.951 1.9998 103.36 2.79138 101.157 4.27465C98.9528 5.75792 97.2352 7.86626 96.2208 10.333C95.2065 12.7998 94.9409 15.5143 95.4579 18.133C95.9748 20.7519 97.2509 23.1575 99.1249 25.0456C100.999 26.9337 103.386 28.2196 105.986 28.7405C108.585 29.2615 111.279 28.9942 113.728 27.9725C116.176 26.9507 118.269 25.2204 119.741 23.0003C121.214 20.7802 122 18.1701 122 15.5C121.996 11.921 120.583 8.48985 118.072 5.95905C115.56 3.42824 112.154 2.00446 108.601 2ZM108.601 23.8031C106.971 23.8034 105.378 23.3165 104.022 22.4043C102.667 21.4921 101.61 20.1954 100.986 18.6782C100.362 17.161 100.199 15.4915 100.517 13.8807C100.835 12.2701 101.62 10.7905 102.772 9.62915C103.925 8.46783 105.394 7.67692 106.992 7.35646C108.591 7.036 110.248 7.20037 111.754 7.82879C113.26 8.4572 114.547 9.52143 115.453 10.8869C116.358 12.2524 116.842 13.8578 116.842 15.5C116.839 17.7009 115.969 19.8107 114.424 21.3671C112.88 22.9236 110.786 23.7996 108.601 23.8031ZM77.9256 2C75.2754 2 72.6846 2.79177 70.4811 4.27517C68.2775 5.75857 66.5601 7.86698 65.5459 10.3338C64.5317 12.8006 64.2664 15.5149 64.7833 18.1337C65.3004 20.7524 66.5766 23.1579 68.4505 25.0459C70.3245 26.934 72.7121 28.2197 75.3114 28.7406C77.9107 29.2615 80.6049 28.9942 83.0535 27.9724C85.502 26.9506 87.5946 25.2203 89.0671 23.0002C90.5394 20.7801 91.3253 18.17 91.3253 15.5C91.3212 11.9208 89.9081 8.48951 87.396 5.95868C84.884 3.42784 81.4782 2.00418 77.9256 2ZM77.9256 23.8031C76.4069 23.8039 74.9176 23.3819 73.6219 22.5837C72.3264 21.7855 71.2748 20.6422 70.5834 19.2799C69.8922 17.9176 69.5878 16.3893 69.7042 14.8638C69.8206 13.3382 70.353 11.8747 71.2429 10.6348C72.1328 9.39501 73.3454 8.42695 74.7468 7.83759C76.1483 7.24821 77.6842 7.06044 79.1848 7.29499C80.6856 7.52954 82.0928 8.17729 83.2511 9.16675C84.4095 10.1562 85.274 11.4489 85.7492 12.9021H77.9256V18.0979H85.7492C85.2049 19.7561 84.1564 21.1997 82.752 22.2237C81.3478 23.2478 79.6592 23.8003 77.9256 23.8031Z" fill="white"/>
</svg>
