<svg width="143" height="60" viewBox="0 0 143 60" fill="none" xmlns="http://www.w3.org/2000/svg">
<path d="M72.0012 20C72.545 19.9892 73.0075 19.8458 72.9999 19.0573V18.939C73.0075 18.1541 72.545 18.0107 72.0012 18C71.455 18.0107 70.9924 18.1541 71.0001 18.939V19.0573C70.9924 19.8458 71.455 19.9892 72.0012 20Z" fill="white"/>
<path d="M50 18.5022C50 18.2226 49.8648 18 49.695 18H48V19H49.695C49.7799 19 49.8514 18.9519 49.9098 18.8559C49.9708 18.7554 50 18.6376 50 18.5022Z" fill="white"/>
<path d="M60.5013 18L61 19H60L60.5013 18Z" fill="white"/>
<path d="M82.5013 18L83 19H82L82.5013 18Z" fill="white"/>
<path d="M46 42L45.5014 40L45 42H46Z" fill="white"/>
<path d="M64 40.9999C64 41.5487 63.7065 42 63.1881 42H61V40H63.1881C63.7065 40 64 40.4472 64 40.9999Z" fill="white"/>
<path d="M70.5014 40L71 42H70L70.5014 40Z" fill="white"/>
<path d="M79.5425 40C79.7971 40 80 40.2228 80 40.5022C80 40.6375 79.9563 40.7555 79.8648 40.8559C79.7772 40.952 79.6698 41 79.5425 41H77V40H79.5425Z" fill="white"/>
<path d="M88 40.9999C88 41.5487 87.7061 42 87.1877 42H85V40H87.1877C87.7061 40 88 40.4472 88 40.9999Z" fill="white"/>
<path d="M37.5068 30L34.7425 24H30V34H33.4552V28.5988L35.9484 34H39.038L41.5583 28.5988V34H45V24H40.4065L37.5068 30Z" fill="white"/>
<path d="M58 34V31.5159H50.5115V30.2165H57.6941V27.7835H50.5115V26.4968H57.9069V24H47V34H58Z" fill="white"/>
<path d="M60.9698 32.9519C61.9919 34.3218 63.8135 35 66.002 35C67.6455 35 68.8502 34.6545 69.6895 34.1066C69.8339 34.0123 69.9676 33.9119 70.0907 33.8064L70.1825 34.8372H73V28.5302H66.1593V30.8225H69.8156C69.7994 30.931 69.7436 31.1013 69.6632 31.2635C69.6131 31.3649 69.5534 31.4631 69.4879 31.5413C69.1079 32.0024 68.0988 32.4093 66.7883 32.4093C65.4254 32.4093 64.5473 32.0432 64.0756 31.4735C63.761 31.053 63.5776 30.4562 63.5776 29.561C63.5776 28.6252 63.761 27.9876 64.1149 27.5672C64.626 26.9704 65.4909 26.7127 66.7621 26.7127C67.9023 26.7127 68.6886 26.984 69.0555 27.3231C69.2914 27.5265 69.4748 27.8114 69.5141 28.0013H72.9083C72.9035 27.8761 72.8861 27.723 72.8569 27.5602C72.807 27.2819 72.7226 26.9743 72.6069 26.7263C71.7944 25.0172 69.9073 24 66.6966 24C63.9052 24 62.0312 24.8816 60.996 26.2109C60.3145 27.1196 60 28.2589 60 29.5339C60 30.9445 60.3669 32.1517 60.9698 32.9519Z" fill="white"/>
<path d="M64 29.5C64 28.5808 64.1696 28.0493 64.4186 27.7318C64.793 27.265 65.4761 27 66.6765 27C67.7439 27 68.3826 27.2764 68.6264 27.5175L68.6317 27.5227L68.6371 27.5277C68.721 27.6051 68.7977 27.7005 68.8556 27.7935C68.9129 27.8853 68.9358 27.9491 68.9415 27.9714H65.6781V31.2681H69C68.881 31.4171 68.6257 31.6029 68.22 31.7522C67.8161 31.9008 67.2979 32 66.702 32C65.4454 32 64.7387 31.6397 64.3904 31.1966C64.1627 30.866 64 30.3589 64 29.5Z" fill="white"/>
<path d="M82.0284 28L81 30H83L82.0284 28Z" fill="white"/>
<path fill-rule="evenodd" clip-rule="evenodd" d="M85.281 32.1528L86.1906 34H90L84.7799 24H80.5228L75 34H78.7302L79.6923 32.1528H85.281ZM80.8522 29.9108L82.1572 27.5032L82.5526 26.586L82.9216 27.4904L84.1609 29.9108H80.8522Z" fill="white"/>
<path fill-rule="evenodd" clip-rule="evenodd" d="M112.24 52H112.234C112.16 52 112.087 51.9996 112.013 51.9988V52H30.7598C23.5898 52 17.1942 48.7223 13.0225 43.6001H24.9939V42.1H11.9008C9.94753 39.2484 8.6387 35.9304 8.18091 32.35H24.9939V30.8501H8.04029C8.01353 30.4034 8 29.9532 8 29.5C8 26.5305 8.58186 23.6954 9.63913 21.1H24.9939V19.6H10.3159C11.9244 16.36 14.2976 13.5582 17.2033 11.425H98.6829C99.6989 10.6792 100.78 10.0151 101.916 9.44248C101.609 9.5968 101.308 9.75766 101.01 9.92496H19.5298C22.8434 8.06318 26.676 7 30.7597 7H112.013V7.00106C112.088 7.00032 112.164 7 112.24 7C124.81 7 135 17.0735 135 29.5C135 41.9264 124.81 52 112.24 52ZM120.703 40.0527C121.722 37.0178 122.33 33.413 122.33 29.5C122.33 25.8521 121.801 22.4721 120.904 19.5718C120.795 19.2177 120.68 18.8708 120.56 18.5313C120.359 17.966 120.144 17.4217 119.917 16.9001C119.609 16.1956 119.278 15.5326 118.927 14.9153C117.267 12.0028 115.373 10.4343 113.606 9.9062V16.9001H118.254C118.647 17.7295 119.006 18.6326 119.323 19.6H113.606V28.1499H120.788C120.804 28.5949 120.813 29.045 120.813 29.5C120.813 29.955 120.804 30.4051 120.788 30.85H113.606V39.4H119.322C119.006 40.3674 118.647 41.2705 118.254 42.0999H113.606V49.0939C115.373 48.5659 117.267 46.9972 118.927 44.0847C119.278 43.4674 119.61 42.8043 119.917 42.0999C120.2 41.4515 120.463 40.7679 120.703 40.0527ZM123.757 19.6C124.486 22.2063 124.936 25.0961 125.039 28.1499H132.223C132.011 25.0501 131.078 22.1459 129.589 19.6H123.757ZM127.69 16.9001H122.864C121.989 14.6311 120.883 12.6575 119.606 11.0822C122.779 12.3232 125.553 14.3417 127.69 16.9001ZM110.875 9.90591V16.9001H104.563C104.87 16.1956 105.201 15.5326 105.554 14.9153C107.213 12.0024 109.108 10.4336 110.875 9.90591ZM104.873 11.0821C103.596 12.6574 102.492 14.631 101.616 16.9001H96.789C98.9262 14.3416 101.702 12.323 104.873 11.0821ZM100.723 19.6H91.9835V21.1H94.0982C93.0704 23.2647 92.4277 25.6433 92.257 28.1499H99.441C99.5442 25.0961 99.9938 22.2063 100.723 19.6ZM110.875 19.6H103.567C102.787 22.1324 102.288 25.0292 102.175 28.1499H110.875V19.6ZM125.039 30.85C124.936 33.9038 124.486 36.7936 123.757 39.4H129.589C131.078 36.854 132.011 33.9498 132.223 30.85H125.039ZM103.567 39.4C102.787 36.8676 102.288 33.9707 102.175 30.85H110.875V39.4H103.567ZM100.723 39.4C99.9938 36.7936 99.5442 33.9038 99.441 30.85H92.257C92.4682 33.9498 93.4011 36.854 94.8907 39.4H100.723ZM122.864 42.0999C121.989 44.3689 120.883 46.3424 119.607 47.9177C122.779 46.6767 125.553 44.6582 127.69 42.0999H122.864ZM104.563 42.0999H110.875V49.0942C109.108 48.5665 107.213 46.9977 105.554 44.0847C105.201 43.4674 104.87 42.8043 104.563 42.0999ZM101.616 42.0999L91.9835 42.1V43.6H98.1788C100.078 45.4516 102.35 46.9308 104.873 47.9178C103.596 46.3426 102.492 44.369 101.616 42.0999ZM71.3705 16.6804C69.9796 16.6831 68.8416 17.0799 68.8471 18.463V18.7293C68.8416 20.1098 69.9796 20.5093 71.3705 20.512C72.7586 20.5093 73.8967 20.1098 73.8911 18.7293V18.463C73.8911 17.0826 72.7613 16.6804 71.3705 16.6804ZM28.1594 16.7701V20.4223H29.5998V16.7701H28.1594ZM33.9676 18.7049L32.3458 16.7701H30.3639V20.4223H31.8043V18.1913L33.7889 20.4223H35.4107V16.7701H33.9676V18.7049ZM39.0639 17.9331V20.4278H37.6236V17.9331H35.9111V16.7756H40.7764V17.9331H39.0639ZM41.2602 20.4278H45.5841V19.4902H42.7005V19.0229H45.5841V18.1777H42.7005V17.7103H45.5841V16.7756H41.2602V20.4278ZM46.3509 20.425V16.7728H49.9106C50.672 16.7647 51.318 17.3978 51.307 18.1532C51.307 18.4277 51.2328 18.6777 51.0844 18.9006C50.9387 19.1206 50.7436 19.2892 50.5016 19.4006L51.307 20.425H49.7732L49.0778 19.5337H47.7913V20.425H46.3509ZM55.3588 18.7049L53.737 16.7701H51.7551V20.4223H53.1955V18.1913L55.1801 20.4223H56.8019V16.7701H55.3588V18.7049ZM58.5337 20.4278H56.9119L58.8937 16.7756H60.6062L62.5881 20.4278H60.9663L60.6749 19.8027H58.825L58.5337 20.4278ZM64.7871 20.4278V17.9331H66.4996V16.7756H61.6343V17.9331H63.3468V20.4278H64.7871ZM66.9834 20.4223V16.7701H68.4238V20.4223H66.9834ZM76.3046 16.7701L77.9264 18.7049V16.7701H79.3695V20.4223H77.7477L75.7631 18.1913V20.4223H74.3227V16.7701H76.3046ZM79.4795 20.4278H81.1012L81.3927 19.8027H83.2424L83.5343 20.4278H85.1556L83.1743 16.7756H81.4614L79.4795 20.4278ZM85.2685 20.4223V16.7701H86.7088V19.2646H89.5924V20.4223H85.2685ZM31.8915 38.6377C31.2292 38.6377 30.4165 38.7342 30.4165 39.164C30.4165 39.401 31.0788 39.4332 31.9362 39.4733L31.9457 39.4738C33.4689 39.5501 35.6014 39.6568 35.5974 41.0078C35.5974 42.5504 33.8095 42.916 31.8915 42.916C29.9777 42.9119 28.3889 42.6829 28.1857 41.0078H30.4165C30.6603 41.4256 31.2251 41.534 31.8915 41.534C32.5539 41.534 33.3666 41.4256 33.3666 41.0078C33.3666 40.7708 32.7042 40.7346 31.8469 40.6945L31.8373 40.694C30.3141 40.6178 28.1816 40.511 28.1857 39.164C28.1857 37.6215 29.9736 37.2519 31.8915 37.2519C33.8054 37.2639 35.3942 37.4768 35.5974 39.164H33.3666C33.1227 38.7382 32.558 38.6377 31.8915 38.6377ZM40.3232 39.1037V42.7914H38.1939V39.1037H35.6624V37.3925H42.8547V39.1037H40.3232ZM41.4406 42.7914H43.838L44.2687 41.8675H47.0034L47.4342 42.7914H49.8316L46.9018 37.3925H44.3703L41.4406 42.7914ZM52.928 37.3844L55.3254 40.2446V37.3844H57.4587V42.7834H55.0613L52.1274 39.4854V42.7834H49.9982V37.3844H52.928ZM58.702 37.3925V42.7914H63.562C65.0614 42.8115 66.1748 41.5582 66.1625 40.0919C66.1748 38.6177 65.0614 37.3724 63.562 37.3925H58.702ZM68.1374 42.7914H65.74L68.6697 37.3925H71.2012L74.1309 42.7914H71.7335L71.3027 41.8675H68.5681L68.1374 42.7914ZM74.2975 37.3885V42.7874H76.4268V41.4698H78.3285L79.3565 42.7874H81.6239L80.4333 41.2729C80.7909 41.1082 81.0794 40.8592 81.2947 40.5338C81.5142 40.2045 81.6239 39.8348 81.6239 39.4291C81.6401 38.3124 80.6852 37.3765 79.5597 37.3885H74.2975ZM82.2862 42.7914V37.3925H87.1458C88.6455 37.3724 89.7588 38.6177 89.7471 40.0919C89.7588 41.5582 88.6455 42.8115 87.1458 42.7914H82.2862ZM44.2913 34.577H40.0532V30.6185L38.2966 34.577H34.7022L32.9733 30.6388V34.577H28.722V23.414H34.087L36.5227 28.9734L39.0778 23.414H44.2913V34.577ZM58.1165 34.577H46.2667V23.414H58.0235V26.8421H50.6376V27.3144H57.811V30.6767H50.6376V31.1621H58.1165V34.577ZM73.1686 34.577H69.4865L69.4247 33.9143C68.5016 34.4325 67.2521 34.7346 65.6429 34.7346C63.3538 34.7346 61.3506 34.0578 60.2006 32.5865C59.5165 31.7186 59.1269 30.4499 59.1269 29.0152C59.1269 27.708 59.4652 26.5065 60.2272 25.536L60.2296 25.5328L60.2322 25.5298C61.3897 24.1102 63.4351 23.2302 66.347 23.2302C69.6752 23.2302 71.7964 24.2413 72.7256 26.1083L72.7264 26.1098L72.7271 26.1112C72.9431 26.5536 73.06 27.138 73.0752 27.5142L73.0794 27.6164H73.1686V34.577ZM79.1548 32.6728L78.1852 34.577H73.4393L79.4664 23.414H84.2827L89.9787 34.577H85.1644L84.2486 32.6728H79.1548ZM28.1045 48.325H89.9349V46.8249H28.1045V48.325Z" fill="white"/>
<path fill-rule="evenodd" clip-rule="evenodd" d="M31.2376 2H112.762C128.357 2 141 14.536 141 30C141 45.464 128.357 58 112.762 58H31.2376C15.6424 58 3 45.464 3 30C3 14.536 15.6424 2 31.2376 2ZM31.2376 4.70972C17.1516 4.70972 5.73272 16.0325 5.73272 30C5.73272 43.9675 17.1516 55.2904 31.2376 55.2904H112.762C126.848 55.2904 138.267 43.9675 138.267 30C138.267 16.0325 126.848 4.70972 112.762 4.70972H31.2376Z" fill="white"/>
</svg>
