<svg width="62" height="62" viewBox="0 0 62 62" fill="none" xmlns="http://www.w3.org/2000/svg">
<path d="M33.9984 49.5331C34.057 43.7341 32.5381 39.0184 30.6061 39.0001C28.6739 38.9819 27.0601 43.668 27.0016 49.4669C26.943 55.2659 28.4619 59.9818 30.3939 59.9999C32.3261 60.0183 33.9399 55.3321 33.9984 49.5331Z" fill="white"/>
<path d="M23.3648 48.8641C26.5863 44.0024 27.9152 39.2266 26.333 38.1971C24.7507 37.1675 20.8565 40.2741 17.6352 45.1358C14.4137 49.9976 13.0848 54.7733 14.667 55.8029C16.2493 56.8325 20.1433 53.7259 23.3648 48.8641Z" fill="white"/>
<path d="M14.8488 40.9347C20.0418 38.6993 23.6475 35.5731 22.9025 33.9523C22.1576 32.3315 17.3441 32.8298 12.1512 35.0653C6.95831 37.3007 3.35254 40.4269 4.09747 42.0477C4.84239 43.6685 9.65595 43.1702 14.8488 40.9347Z" fill="white"/>
<path d="M21.9875 30.0072C22.2613 28.2631 18.0117 26.1744 12.4958 25.342C6.97984 24.5096 2.28632 25.2488 2.01252 26.9929C1.73872 28.737 5.98832 30.8256 11.5043 31.658C17.0202 32.4904 21.7137 31.7512 21.9875 30.0072Z" fill="white"/>
<path d="M24.6916 25.5436C25.9024 24.1242 23.4403 19.8198 19.1923 15.9297C14.9444 12.0396 10.5192 10.0368 9.30839 11.4563C8.09761 12.8759 10.5597 17.1802 14.8077 21.0703C19.0557 24.9605 23.4809 26.9632 24.6916 25.5436Z" fill="white"/>
<path d="M29.4679 22.958C31.336 22.4561 31.5216 17.5908 29.8825 12.0912C28.2434 6.5916 25.4002 2.54013 23.5321 3.04203C21.664 3.54392 21.4784 8.40911 23.1175 13.9088C24.7566 19.4083 27.5998 23.4599 29.4679 22.958Z" fill="white"/>
<path d="M39.7725 13.9769C41.4784 8.48089 41.3962 3.58809 39.5888 3.04856C37.7814 2.50902 34.9333 6.52705 33.2274 12.0231C31.5216 17.5191 31.6038 22.4119 33.4112 22.9514C35.2186 23.491 38.0667 19.473 39.7725 13.9769Z" fill="white"/>
<path d="M47.1134 21.4836C51.3736 17.8702 53.881 13.8291 52.7137 12.4574C51.5464 11.0858 47.1467 12.9031 42.8866 16.5163C38.6263 20.1297 36.1191 24.1709 37.2863 25.5426C38.4535 26.9142 42.8533 25.097 47.1134 21.4836Z" fill="white"/>
<path d="M49.4311 31.732C54.9488 30.9915 59.2286 28.9443 58.9905 27.1592C58.7526 25.3743 54.0866 24.5275 48.5689 25.2679C43.0514 26.0084 38.7714 28.0557 39.0095 29.8407C39.2476 31.6257 43.9134 32.4725 49.4311 31.732Z" fill="white"/>
<path d="M57.892 44.0304C58.676 42.3086 55.1066 38.8845 49.9195 36.3824C44.7325 33.8802 39.8919 33.2478 39.108 34.9696C38.324 36.6915 41.8934 40.1156 47.0805 42.6177C52.2675 45.1197 57.1081 45.7523 57.892 44.0304Z" fill="white"/>
<path d="M46.3376 55.8187C47.8496 54.8312 46.6856 50.0822 43.7378 45.2117C40.7899 40.3412 37.1744 37.1937 35.6624 38.1812C34.1504 39.1688 35.3144 43.9178 38.2622 48.7883C41.2101 53.6587 44.8256 56.8064 46.3376 55.8187Z" fill="white"/>
</svg>
