<svg width="91" height="65" viewBox="0 0 91 65" fill="none" xmlns="http://www.w3.org/2000/svg">
<path d="M7 59V46H5V59H7Z" fill="white"/>
<path d="M9 54.5C9 57.1308 10.786 59 13.5 59C16.214 59 18 57.1308 18 54.5C18 51.8692 16.214 50 13.5 50C10.786 50 9 51.8692 9 54.5ZM11.1537 54.5C11.1537 52.9596 12.0817 51.8865 13.5 51.8865C14.9183 51.8865 15.8463 52.9596 15.8463 54.5C15.8463 56.0231 14.9183 57.1135 13.5 57.1135C12.0817 57.1135 11.1537 56.0231 11.1537 54.5Z" fill="white"/>
<path d="M19 54.3506C19 56.8367 20.6221 58.6322 23.0465 58.6322C24.3023 58.6322 25.3837 58.1315 25.9244 57.3028V58.753C25.9244 60.1514 25.0349 61.0837 23.5523 61.0837C22.2267 61.0837 21.3198 60.4449 21.1977 59.3227H19.0523C19.3314 61.5498 21.0581 63 23.4302 63C26.221 63 28 61.1872 28 58.3732V50.2763H26.1163L25.9942 51.433C25.471 50.5352 24.3895 50 23.1162 50C20.6569 50 19 51.8473 19 54.3506ZM21.1628 54.2988C21.1628 52.8831 22.0698 51.8473 23.4128 51.8473C24.878 51.8473 25.8547 52.9004 25.8547 54.2988C25.8547 55.7145 24.878 56.8021 23.4128 56.8021C22.0872 56.8021 21.1628 55.7318 21.1628 54.2988Z" fill="white"/>
<path d="M29 54.5C29 57.1308 30.786 59 33.5 59C36.214 59 38 57.1308 38 54.5C38 51.8692 36.214 50 33.5 50C30.786 50 29 51.8692 29 54.5ZM31.1537 54.5C31.1537 52.9596 32.0817 51.8865 33.5 51.8865C34.9183 51.8865 35.8463 52.9596 35.8463 54.5C35.8463 56.0231 34.9183 57.1135 33.5 57.1135C32.0817 57.1135 31.1537 56.0231 31.1537 54.5Z" fill="white"/>
<path d="M40.4896 48.5473C41.3172 48.5473 42 47.9851 42 47.2648C42 46.5621 41.3172 46 40.4896 46C39.6414 46 39 46.5621 39 47.2648C39 47.9851 39.6414 48.5473 40.4896 48.5473ZM39.2276 59H41.7517V50.3216H39.2276V59Z" fill="white"/>
<path d="M43 63H45.0515V57.7683C45.586 58.6667 46.7411 59.1951 48.0169 59.1951C50.534 59.1951 52.034 57.2222 51.9994 54.5095C51.9478 51.7791 50.4134 50 47.9997 50C46.7067 50 45.5343 50.5813 45.0171 51.5854L44.8964 50.2643H43V63ZM45.1377 54.6152C45.1377 53.0474 46.0688 51.9552 47.5342 51.9552C48.9996 51.9552 49.8789 53.065 49.8789 54.6152C49.8789 56.1653 48.9996 57.2574 47.5342 57.2574C46.0688 57.2574 45.1377 56.183 45.1377 54.6152Z" fill="white"/>
<path d="M53 56.2241C53.0713 57.9138 54.425 59 56.5267 59C58.5929 59 60 57.9311 60 56.2759C60 55.0517 59.2163 54.2241 57.7736 53.8793L56.2239 53.5172C55.5649 53.3448 55.1196 53.1207 55.1196 52.569C55.1196 51.9828 55.6005 51.569 56.3842 51.569C57.2036 51.569 57.738 52.0172 57.738 52.7587H59.7151C59.6438 51.0689 58.3435 50 56.4377 50C54.5496 50 53.1425 51.0689 53.1425 52.6897C53.1425 53.7931 53.8015 54.7069 55.4937 55.1379L57.0255 55.5172C57.5955 55.6724 57.9517 55.931 57.9517 56.4138C57.9517 57.0862 57.2927 57.3966 56.4911 57.3966C55.5293 57.3966 54.9771 56.9655 54.9771 56.2241H53Z" fill="white"/>
<path d="M64.1274 59C65.2851 59 66.3909 58.4497 66.892 57.6331L67.0302 58.7692H69V50H66.892V54.5976C66.892 56.1775 66.3045 57.0651 64.9223 57.0651C63.851 57.0651 63.108 56.5325 63.108 54.7219V50H61V55.4852C61 57.5799 62.1058 59 64.1274 59Z" fill="white"/>
<path d="M73.084 59V53.9784C73.084 52.5639 73.8869 51.892 74.8778 51.892C75.8685 51.892 76.5177 52.5461 76.5177 53.7839V59H78.5506V53.996C78.5506 52.5638 79.3364 51.892 80.3272 51.892C81.3351 51.892 81.9843 52.5461 81.9843 53.7839V59H84V53.2888C84 51.2731 82.9237 50 80.8738 50C79.5926 50 78.5847 50.6366 78.1748 51.6621C77.7135 50.6366 76.7911 50 75.3903 50C74.3994 50 73.5111 50.4774 73.0157 51.2554L72.9132 50.2653H71V59H73.084Z" fill="white"/>
<path d="M40.2686 33.5209C37.4031 38.5888 31.5688 41 25.6694 41H2C26.64 37.973 43.8 25.8649 46 9C48.2 25.8649 65.36 37.973 90 41H66.3306C60.4312 41 54.5969 38.5888 51.7314 33.5209C48.63 28.0357 46.654 21.8289 46 15.0541C45.346 21.8289 43.37 28.0357 40.2686 33.5209Z" fill="white"/>
<path d="M26.342 31.8342C24.9676 32.6038 23.5219 33.3267 22.0082 34C21.1483 31.0458 20.8319 27.9463 21.0843 24.8587C21.4181 20.7741 22.737 16.8361 24.9241 13.3939C27.1113 9.95172 30.0992 7.1113 33.6232 5.12436C37.1472 3.13743 41.0985 2.06528 45.1271 2.00289C49.1557 1.94049 53.1372 2.88978 56.719 4.76666C60.3008 6.64354 63.3723 9.39004 65.6614 12.763C67.9506 16.1359 69.3867 20.0311 69.8427 24.1035C70.2155 27.4345 69.9233 30.8 68.9918 34C67.4781 33.3267 66.0324 32.6037 64.658 31.8341C65.2375 29.4947 65.3999 27.0608 65.1299 24.6495C64.7622 21.3655 63.6041 18.2244 61.7582 15.5045C59.9122 12.7846 57.4353 10.5698 54.547 9.05629C51.6586 7.54277 48.4479 6.77727 45.1993 6.82758C41.9506 6.87789 38.7642 7.74248 35.9226 9.3447C33.0809 10.947 30.6714 13.2375 28.9076 16.0133C27.1439 18.7891 26.0803 21.9646 25.8112 25.2585C25.6302 27.4725 25.8119 29.6941 26.342 31.8342Z" fill="white"/>
</svg>
